name Walk2.mot
datacolumns 19
datarows 17
range 2.47200000 2.48800000
endheader

                time	   L_ground_force_vx	   L_ground_force_vy	   L_ground_force_vz	   L_ground_force_px	   L_ground_force_py	   L_ground_force_pz	   R_ground_force_vx	   R_ground_force_vy	   R_ground_force_vz	   R_ground_force_px	   R_ground_force_py	   R_ground_force_pz	   L_ground_torque_x	   L_ground_torque_y	   L_ground_torque_z	   R_ground_torque_x	   R_ground_torque_y	   R_ground_torque_z	
          2.47200000	          9.29179904	         19.72511593	         -1.72756517	          0.31958204	          0.00000000	          0.11480312	          0.00000000	          0.00000000	         -0.00000000	          0.00000000	          0.00000000	         -0.00000000	          0.00000000	         -0.03315029	          0.00000000	          0.00000000	         -0.00000000	          0.00000000	
          2.47300000	          8.06043334	         16.88669811	         -1.64632901	          0.30610602	          0.00000000	          0.10990542	          0.00000000	          0.00000000	         -0.00000000	          0.00000000	          0.00000000	         -0.00000000	          0.00000000	         -0.02770151	          0.00000000	          0.00000000	          0.00000000	          0.00000000	
          2.47400000	          6.90329631	         14.22581192	         -1.56577789	          0.29261968	          0.00000000	          0.10500904	          0.00000000	          0.00000000	          0.00000000	          0.00000000	          0.00000000	         -0.00000000	          0.00000000	         -0.02261101	          0.00000000	          0.00000000	          0.00000000	          0.00000000	
          2.47500000	          5.81845794	         11.73740932	         -1.48615885	          0.27917427	          0.00000000	          0.10013218	          0.00000000	          0.00000000	          0.00000000	          0.00000000	          0.00000000	         -0.00000000	          0.00000000	         -0.01786788	          0.00000000	          0.00000000	          0.00000000	          0.00000000	
          2.47600000	          4.80387045	          9.41622813	         -1.40769350	          0.26581711	          0.00000000	          0.09529158	          0.00000000	          0.00000000	          0.00000000	          0.00000000	          0.00000000	         -0.00000000	          0.00000000	         -0.01346051	          0.00000000	          0.00000000	          0.00000000	          0.00000000	
          2.47700000	          3.85739470	          7.25682170	         -1.33058026	          0.25259117	          0.00000000	          0.09050247	          0.00000000	          0.00000000	          0.00000000	          0.00000000	          0.00000000	         -0.00000000	          0.00000000	         -0.00937701	          0.00000000	          0.00000000	          0.00000000	          0.00000000	
          2.47800000	          2.97681607	          5.25359516	         -1.25499556	          0.23953527	          0.00000000	          0.08577856	          0.00000000	          0.00000000	          0.00000000	          0.00000000	          0.00000000	         -0.00000000	          0.00000000	         -0.00560528	          0.00000000	          0.00000000	          0.00000000	          0.00000000	
          2.47900000	          2.15985920	          3.40083917	         -1.18109504	          0.22668429	          0.00000000	          0.08113216	          0.00000000	          0.00000000	          0.00000000	          0.00000000	          0.00000000	         -0.00000000	          0.00000000	         -0.00213305	          0.00000000	          0.00000000	          0.00000000	          0.00000000	
          2.48000000	          1.40420180	          1.69276123	         -1.10901477	          0.21406936	          0.00000000	          0.07657424	          0.00000000	          0.00000000	          0.00000000	          0.00000000	          0.00000000	         -0.00000000	          0.00000000	          0.00105201	          0.00000000	          0.00000000	          0.00000000	          0.00000000	
          2.48100000	          0.70748739	          0.12351464	         -1.03887236	          0.20171809	          0.00000000	          0.07211450	          0.00000000	          0.00000000	          0.00000000	          0.00000000	          0.00000000	         -0.00000000	          0.00000000	          0.00396230	          0.00000000	          0.00000000	          0.00000000	          0.00000000	
          2.48200000	          0.06733712	         -1.31277480	         -0.97076809	          0.18965474	          0.00000000	          0.06776143	          0.00000000	          0.00000000	          0.00000000	          0.00000000	          0.00000000	         -0.00000000	          0.00000000	          0.00661016	          0.00000000	          0.00000000	          0.00000000	          0.00000000	
          2.48300000	         -0.51863937	         -2.62198426	         -0.90478602	          0.17790039	          0.00000000	          0.06352243	          0.00000000	          0.00000000	          0.00000000	          0.00000000	          0.00000000	         -0.00000000	          0.00000000	          0.00900791	          0.00000000	          0.00000000	          0.00000000	          0.00000000	
          2.48400000	         -1.05283388	         -3.80997141	         -0.84099504	          0.16647321	          0.00000000	          0.05940381	          0.00000000	          0.00000000	          0.00000000	          0.00000000	          0.00000000	         -0.00000000	          0.00000000	          0.01116776	          0.00000000	          0.00000000	          0.00000000	          0.00000000	
          2.48500000	         -1.53763053	         -4.88255395	         -0.77944992	          0.15538855	          0.00000000	          0.05541090	          0.00000000	          0.00000000	          0.00000000	          0.00000000	          0.00000000	         -0.00000000	          0.00000000	          0.01310177	          0.00000000	          0.00000000	          0.00000000	          0.00000000	
          2.48600000	         -1.97539740	         -5.84549102	         -0.72019226	          0.14465918	          0.00000000	          0.05154809	          0.00000000	          0.00000000	          0.00000000	          0.00000000	          0.00000000	         -0.00000000	          0.00000000	          0.01482183	          0.00000000	          0.00000000	          0.00000000	          0.00000000	
          2.48700000	         -2.36847894	         -6.70446642	         -0.66325149	          0.13429542	          0.00000000	          0.04781893	          0.00000000	          0.00000000	          0.00000000	          0.00000000	          0.00000000	         -0.00000000	          0.00000000	          0.01633964	          0.00000000	          0.00000000	          0.00000000	          0.00000000	
          2.48800000	         -2.71918912	         -7.46507353	         -0.60864579	          0.12430537	          0.00000000	          0.04422615	          0.00000000	          0.00000000	          0.00000000	          0.00000000	          0.00000000	         -0.00000000	          0.00000000	          0.01766666	          0.00000000	          0.00000000	          0.00000000	          0.00000000	
